<svg id="visual" viewBox="0 0 675 900" width="675" height="900" xmlns="http://www.w3.org/2000/svg" xmlns:xlink="http://www.w3.org/1999/xlink" version="1.1"><rect x="0" y="0" width="675" height="900" fill="#000000"></rect><path d="M0 793L12.5 792.2C25 791.3 50 789.7 75 789.2C100 788.7 125 789.3 150 786.8C175 784.3 200 778.7 225 778.2C250 777.7 275 782.3 300 785.7C325 789 350 791 375 788.5C400 786 425 779 450 778.3C475 777.7 500 783.3 525 784.2C550 785 575 781 600 779.7C625 778.3 650 779.7 662.5 780.3L675 781L675 901L662.5 901C650 901 625 901 600 901C575 901 550 901 525 901C500 901 475 901 450 901C425 901 400 901 375 901C350 901 325 901 300 901C275 901 250 901 225 901C200 901 175 901 150 901C125 901 100 901 75 901C50 901 25 901 12.5 901L0 901Z" fill="#69faf8"></path><path d="M0 812L12.5 813C25 814 50 816 75 816C100 816 125 814 150 813.5C175 813 200 814 225 814C250 814 275 813 300 814.2C325 815.3 350 818.7 375 819.8C400 821 425 820 450 820.2C475 820.3 500 821.7 525 823C550 824.3 575 825.7 600 825.7C625 825.7 650 824.3 662.5 823.7L675 823L675 901L662.5 901C650 901 625 901 600 901C575 901 550 901 525 901C500 901 475 901 450 901C425 901 400 901 375 901C350 901 325 901 300 901C275 901 250 901 225 901C200 901 175 901 150 901C125 901 100 901 75 901C50 901 25 901 12.5 901L0 901Z" fill="#00a3ff"></path><path d="M0 855L12.5 856.3C25 857.7 50 860.3 75 860.8C100 861.3 125 859.7 150 859.5C175 859.3 200 860.7 225 858.5C250 856.3 275 850.7 300 848.5C325 846.3 350 847.7 375 848C400 848.3 425 847.7 450 847.7C475 847.7 500 848.3 525 849.5C550 850.7 575 852.3 600 853.7C625 855 650 856 662.5 856.5L675 857L675 901L662.5 901C650 901 625 901 600 901C575 901 550 901 525 901C500 901 475 901 450 901C425 901 400 901 375 901C350 901 325 901 300 901C275 901 250 901 225 901C200 901 175 901 150 901C125 901 100 901 75 901C50 901 25 901 12.5 901L0 901Z" fill="#3024c7"></path></svg>