<svg id="visual" viewBox="0 0 960 540" width="960" height="540" xmlns="http://www.w3.org/2000/svg" xmlns:xlink="http://www.w3.org/1999/xlink" version="1.1"><rect x="0" y="0" width="960" height="540" fill="#000000"></rect><path d="M0 437L16 437C32 437 64 437 96 435.7C128 434.3 160 431.7 192 429.2C224 426.7 256 424.3 288 423.3C320 422.3 352 422.7 384 423.2C416 423.7 448 424.3 480 425.2C512 426 544 427 576 428.8C608 430.7 640 433.3 672 432C704 430.7 736 425.3 768 424.5C800 423.7 832 427.3 864 430.3C896 433.3 928 435.7 944 436.8L960 438L960 541L944 541C928 541 896 541 864 541C832 541 800 541 768 541C736 541 704 541 672 541C640 541 608 541 576 541C544 541 512 541 480 541C448 541 416 541 384 541C352 541 320 541 288 541C256 541 224 541 192 541C160 541 128 541 96 541C64 541 32 541 16 541L0 541Z" fill="#69faf8"></path><path d="M0 459L16 459.2C32 459.3 64 459.7 96 457.7C128 455.7 160 451.3 192 450C224 448.7 256 450.3 288 450.5C320 450.7 352 449.3 384 451.2C416 453 448 458 480 460.5C512 463 544 463 576 460.7C608 458.3 640 453.7 672 451.3C704 449 736 449 768 450.5C800 452 832 455 864 454.5C896 454 928 450 944 448L960 446L960 541L944 541C928 541 896 541 864 541C832 541 800 541 768 541C736 541 704 541 672 541C640 541 608 541 576 541C544 541 512 541 480 541C448 541 416 541 384 541C352 541 320 541 288 541C256 541 224 541 192 541C160 541 128 541 96 541C64 541 32 541 16 541L0 541Z" fill="#00c4ff"></path><path d="M0 479L16 479.5C32 480 64 481 96 482.2C128 483.3 160 484.7 192 484.3C224 484 256 482 288 480.2C320 478.3 352 476.7 384 476.2C416 475.7 448 476.3 480 477.7C512 479 544 481 576 480.3C608 479.7 640 476.3 672 476.2C704 476 736 479 768 479.2C800 479.3 832 476.7 864 477.7C896 478.7 928 483.3 944 485.7L960 488L960 541L944 541C928 541 896 541 864 541C832 541 800 541 768 541C736 541 704 541 672 541C640 541 608 541 576 541C544 541 512 541 480 541C448 541 416 541 384 541C352 541 320 541 288 541C256 541 224 541 192 541C160 541 128 541 96 541C64 541 32 541 16 541L0 541Z" fill="#007ff5"></path><path d="M0 512L16 511.7C32 511.3 64 510.7 96 509.5C128 508.3 160 506.7 192 506.8C224 507 256 509 288 508.3C320 507.7 352 504.3 384 503.8C416 503.3 448 505.7 480 507.5C512 509.3 544 510.7 576 511.5C608 512.3 640 512.7 672 512.7C704 512.7 736 512.3 768 512.2C800 512 832 512 864 511.7C896 511.3 928 510.7 944 510.3L960 510L960 541L944 541C928 541 896 541 864 541C832 541 800 541 768 541C736 541 704 541 672 541C640 541 608 541 576 541C544 541 512 541 480 541C448 541 416 541 384 541C352 541 320 541 288 541C256 541 224 541 192 541C160 541 128 541 96 541C64 541 32 541 16 541L0 541Z" fill="#3024c7"></path></svg>